# This file uses centimeters as units for non-parametric coordinates.

mtllib 
g default
v 5.375151 2.474874 -2.226457
v 4.113963 2.474874 -4.113959
v 2.226463 2.474874 -5.375148
v 0.000003 2.474874 -5.818019
v -2.226457 2.474874 -5.375150
v -4.113960 2.474874 -4.113963
v -5.375148 2.474874 -2.226462
v -5.818020 2.474874 -0.000002
v -5.375150 2.474874 2.226458
v -4.113962 2.474874 4.113960
v -2.226461 2.474874 5.375149
v -0.000001 2.474874 5.818020
v 2.226459 2.474874 5.375150
v 4.113961 2.474874 4.113961
v 5.375149 2.474874 2.226460
v 5.818020 2.474874 0.000000
v 8.314919 3.500000 -3.444147
v 6.363965 3.500000 -6.363958
v 3.444156 3.500000 -8.314915
v 0.000005 3.500000 -9.000000
v -3.444147 3.500000 -8.314919
v -6.363959 3.500000 -6.363964
v -8.314916 3.500000 -3.444155
v -9.000001 3.500000 -0.000003
v -8.314918 3.500000 3.444149
v -6.363963 3.500000 6.363960
v -3.444153 3.500000 8.314916
v -0.000001 3.500000 9.000001
v 3.444150 3.500000 8.314918
v 6.363961 3.500000 6.363962
v 8.314917 3.500000 3.444152
v 9.000001 3.500000 0.000000
v 9.905909 3.233578 -4.103155
v 7.581656 3.233578 -7.581648
v 4.103166 3.233578 -9.905903
v 0.000005 3.233578 -10.722075
v -4.103156 3.233578 -9.905908
v -7.581649 3.233578 -7.581655
v -9.905905 3.233578 -4.103165
v -10.722076 3.233578 -0.000004
v -9.905908 3.233578 4.103158
v -7.581655 3.233578 7.581651
v -4.103163 3.233578 9.905905
v -0.000002 3.233578 10.722076
v 4.103159 3.233578 9.905906
v 7.581652 3.233578 7.581653
v 9.905906 3.233578 4.103161
v 10.722076 3.233578 0.000000
v 11.254686 2.474873 -4.661836
v 8.613966 2.474873 -8.613957
v 4.661848 2.474873 -11.254680
v 0.000006 2.474873 -12.181981
v -4.661837 2.474873 -11.254685
v -8.613958 2.474873 -8.613965
v -11.254683 2.474873 -4.661847
v -12.181982 2.474873 -0.000004
v -11.254685 2.474873 4.661839
v -8.613964 2.474873 8.613960
v -4.661844 2.474873 11.254683
v -0.000002 2.474873 12.181982
v 4.661841 2.474873 11.254684
v 8.613961 2.474873 8.613962
v 11.254683 2.474873 4.661843
v 12.181982 2.474873 0.000000
v 12.155910 1.339391 -5.035134
v 9.303732 1.339391 -9.303723
v 5.035147 1.339391 -12.155903
v 0.000007 1.339391 -13.157457
v -5.035136 1.339391 -12.155909
v -9.303724 1.339391 -9.303732
v -12.155905 1.339391 -5.035146
v -13.157458 1.339391 -0.000005
v -12.155908 1.339391 5.035137
v -9.303730 1.339391 9.303726
v -5.035144 1.339391 12.155905
v -0.000002 1.339391 13.157458
v 5.035140 1.339391 12.155906
v 9.303727 1.339391 9.303729
v 12.155906 1.339391 5.035141
v 13.157458 1.339391 0.000000
v 12.472377 -0.000001 -5.166219
v 9.545946 -0.000001 -9.545936
v 5.166233 -0.000001 -12.472371
v 0.000007 -0.000001 -13.499999
v -5.166220 -0.000001 -12.472376
v -9.545937 -0.000001 -9.545945
v -12.472372 -0.000001 -5.166231
v -13.500000 -0.000001 -0.000005
v -12.472375 -0.000001 5.166222
v -9.545943 -0.000001 9.545939
v -5.166229 -0.000001 12.472373
v -0.000002 -0.000001 13.500000
v 5.166225 -0.000001 12.472374
v 9.545941 -0.000001 9.545942
v 12.472373 -0.000001 5.166226
v 13.500000 -0.000001 0.000000
v 12.155909 -1.339393 -5.035134
v 9.303732 -1.339393 -9.303722
v 5.035147 -1.339393 -12.155902
v 0.000007 -1.339393 -13.157456
v -5.035136 -1.339393 -12.155908
v -9.303723 -1.339393 -9.303731
v -12.155903 -1.339393 -5.035146
v -13.157457 -1.339393 -0.000005
v -12.155906 -1.339393 5.035137
v -9.303729 -1.339393 9.303725
v -5.035143 -1.339393 12.155905
v -0.000002 -1.339393 13.157457
v 5.035139 -1.339393 12.155905
v 9.303726 -1.339393 9.303728
v 12.155905 -1.339393 5.035141
v 13.157457 -1.339393 0.000000
v 11.254684 -2.474875 -4.661835
v 8.613965 -2.474875 -8.613954
v 4.661848 -2.474875 -11.254679
v 0.000006 -2.474875 -12.181979
v -4.661836 -2.474875 -11.254683
v -8.613957 -2.474875 -8.613964
v -11.254680 -2.474875 -4.661846
v -12.181981 -2.474875 -0.000004
v -11.254683 -2.474875 4.661838
v -8.613962 -2.474875 8.613958
v -4.661844 -2.474875 11.254681
v -0.000002 -2.474875 12.181981
v 4.661841 -2.474875 11.254683
v 8.613959 -2.474875 8.613961
v 11.254681 -2.474875 4.661842
v 12.181981 -2.474875 0.000000
v 9.905906 -3.233579 -4.103154
v 7.581655 -3.233579 -7.581646
v 4.103165 -3.233579 -9.905901
v 0.000005 -3.233579 -10.722073
v -4.103155 -3.233579 -9.905906
v -7.581648 -3.233579 -7.581655
v -9.905903 -3.233579 -4.103164
v -10.722074 -3.233579 -0.000004
v -9.905905 -3.233579 4.103157
v -7.581653 -3.233579 7.581649
v -4.103162 -3.233579 9.905903
v -0.000002 -3.233579 10.722074
v 4.103159 -3.233579 9.905905
v 7.581650 -3.233579 7.581652
v 9.905905 -3.233579 4.103160
v 10.722074 -3.233579 0.000000
v 5.375149 -2.474872 -2.226456
v 4.113962 -2.474872 -4.113958
v 2.226462 -2.474872 -5.375146
v 0.000003 -2.474872 -5.818018
v -2.226456 -2.474872 -5.375149
v -4.113959 -2.474872 -4.113962
v -5.375147 -2.474872 -2.226461
v -5.818018 -2.474872 -0.000002
v -5.375148 -2.474872 2.226457
v -4.113961 -2.474872 4.113959
v -2.226460 -2.474872 5.375147
v -0.000001 -2.474872 5.818018
v 2.226458 -2.474872 5.375148
v 4.113960 -2.474872 4.113960
v 5.375148 -2.474872 2.226459
v 5.818018 -2.474872 0.000000
v 4.473926 -1.339390 -1.853158
v 3.424195 -1.339390 -3.424192
v 1.853163 -1.339390 -4.473923
v 0.000002 -1.339390 -4.842541
v -1.853158 -1.339390 -4.473926
v -3.424192 -1.339390 -3.424195
v -4.473924 -1.339390 -1.853162
v -4.842541 -1.339390 -0.000002
v -4.473925 -1.339390 1.853159
v -3.424194 -1.339390 3.424193
v -1.853161 -1.339390 4.473924
v -0.000001 -1.339390 4.842541
v 1.853160 -1.339390 4.473925
v 3.424193 -1.339390 3.424194
v 4.473925 -1.339390 1.853160
v 4.842541 -1.339390 0.000000
vt 0.656347 0.826817
vt 0.691580 0.809000
vt 0.721112 0.846730
vt 0.669193 0.872974
vt 0.616978 0.829788
vt 0.611182 0.877351
vt 0.579471 0.817463
vt 0.555914 0.859193
vt 0.549539 0.791735
vt 0.511801 0.821273
vt 0.531713 0.756507
vt 0.485551 0.769358
vt 0.528726 0.717137
vt 0.481165 0.711347
vt 0.541039 0.679623
vt 0.499313 0.656072
vt 0.566768 0.649684
vt 0.537234 0.611953
vt 0.602001 0.631866
vt 0.589155 0.585706
vt 0.641371 0.628895
vt 0.647168 0.581331
vt 0.678879 0.641220
vt 0.702438 0.599490
vt 0.708811 0.666949
vt 0.746551 0.637414
vt 0.726636 0.702178
vt 0.772798 0.689330
vt 0.729622 0.741548
vt 0.777183 0.747341
vt 0.717308 0.779062
vt 0.759032 0.802613
vt 0.736969 0.867007
vt 0.676083 0.897777
vt 0.608057 0.902903
vt 0.543248 0.881606
vt 0.491522 0.837132
vt 0.460748 0.776251
vt 0.455612 0.708224
vt 0.476901 0.643409
vt 0.521375 0.591676
vt 0.582264 0.560902
vt 0.650294 0.555778
vt 0.715105 0.577078
vt 0.766831 0.621556
vt 0.797603 0.682440
vt 0.805577 0.750958
vt 0.783280 0.816216
vt 0.753273 0.887709
vt 0.683224 0.923142
vt 0.604948 0.929070
vt 0.530362 0.904592
vt 0.470821 0.853438
vt 0.435383 0.783394
vt 0.429444 0.705117
vt 0.453914 0.630524
vt 0.505070 0.570974
vt 0.575123 0.535537
vt 0.653405 0.529611
vt 0.727993 0.554093
vt 0.787534 0.605252
vt 0.825778 0.674676
vt 0.834775 0.754501
vt 0.808552 0.830698
vt 0.770681 0.911014
vt 0.690657 0.949209
vt 0.601839 0.955997
vt 0.517186 0.928281
vt 0.449583 0.870283
vt 0.409316 0.790830
vt 0.402516 0.702012
vt 0.430224 0.617351
vt 0.488225 0.549737
vt 0.567690 0.509469
vt 0.656514 0.502682
vt 0.741171 0.530404
vt 0.808774 0.588409
vt 0.854266 0.666156
vt 0.864709 0.757986
vt 0.834396 0.845914
vt 0.194798 0.035363
vt 0.108853 0.090450
vt 0.050380 0.172072
vt 0.027100 0.270154
vt 0.043389 0.370151
vt 0.097980 0.455825
vt 0.181798 0.512224
vt 0.279488 0.530070
vt 0.373295 0.509120
vt 0.450170 0.456783
vt 0.502449 0.382404
vt 0.525866 0.294971
vt 0.517395 0.203447
vt 0.475757 0.118245
vt 0.402199 0.051544
vt 0.302298 0.017603
vt 0.205494 0.064783
vt 0.130228 0.112966
vt 0.078588 0.184810
vt 0.058056 0.271194
vt 0.072298 0.359061
vt 0.120115 0.434219
vt 0.193466 0.483684
vt 0.279036 0.499397
vt 0.361298 0.481083
vt 0.428931 0.435121
vt 0.475024 0.369604
vt 0.495668 0.292510
vt 0.488115 0.211830
vt 0.451351 0.136901
vt 0.386767 0.078524
vt 0.300079 0.048502
vt 0.215052 0.088819
vt 0.147616 0.131329
vt 0.101541 0.195295
vt 0.083285 0.272091
vt 0.095919 0.350030
vt 0.138200 0.416602
vt 0.202937 0.460626
vt 0.278631 0.475037
vt 0.352003 0.459357
vt 0.412729 0.418643
vt 0.454275 0.359918
vt 0.472745 0.290651
vt 0.465532 0.218289
vt 0.432059 0.151662
vt 0.374001 0.100569
vt 0.297374 0.075574
vt 0.224925 0.114607
vt 0.166215 0.151083
vt 0.126109 0.206567
vt 0.110288 0.273088
vt 0.121175 0.340465
vt 0.157498 0.397919
vt 0.213189 0.436054
vt 0.278375 0.448965
vt 0.342089 0.435865
vt 0.395364 0.400748
vt 0.431878 0.349467
vt 0.447965 0.288672
vt 0.441258 0.225409
vt 0.411504 0.167697
vt 0.360696 0.124198
vt 0.294780 0.103958
vt 0.252682 0.190974
vt 0.221204 0.210463
vt 0.199394 0.240428
vt 0.190511 0.276244
vt 0.195971 0.312312
vt 0.214974 0.343157
vt 0.244151 0.363841
vt 0.278849 0.371297
vt 0.313461 0.364815
vt 0.342909 0.345827
vt 0.363397 0.317421
vt 0.372113 0.283392
vt 0.367997 0.248349
vt 0.351178 0.217197
vt 0.323533 0.194770
vt 0.288889 0.185268
vt 0.661133 0.767315
vt 0.644187 0.776669
vt 0.624945 0.778802
vt 0.606350 0.773395
vt 0.591247 0.761257
vt 0.581872 0.744316
vt 0.579718 0.725075
vt 0.585101 0.706479
vt 0.597215 0.691368
vt 0.614162 0.682014
vt 0.633403 0.679881
vt 0.651998 0.685288
vt 0.667102 0.697426
vt 0.676477 0.714367
vt 0.678630 0.733608
vt 0.673247 0.752204
vt 0.861167 0.862259
vt 0.788325 0.935528
vt 0.896367 0.761515
vt 0.883497 0.656611
vt 0.830852 0.570906
vt 0.754872 0.505785
vt 0.659751 0.474694
vt 0.559967 0.482373
vt 0.470720 0.527660
vt 0.405602 0.603655
vt 0.374527 0.698782
vt 0.382222 0.798556
vt 0.427507 0.887788
vt 0.503488 0.952901
vt 0.598605 0.983985
vt 0.698379 0.976304
vt 0.287014 0.210893
vt 0.260841 0.214957
vt 0.312013 0.217519
vt 0.332294 0.233493
vt 0.344799 0.256150
vt 0.348007 0.282066
vt 0.341517 0.307326
vt 0.326190 0.328317
vt 0.304291 0.342022
vt 0.278930 0.346422
vt 0.253815 0.340583
vt 0.232876 0.325299
vt 0.219301 0.302619
vt 0.215618 0.276549
vt 0.222235 0.250557
vt 0.238182 0.228875
vn -0.473749 0.742378 0.473748
vn -0.618982 0.742378 0.256391
vn -0.086860 0.995571 0.035979
vn -0.066480 0.995571 0.066480
vn -0.256391 0.742378 0.618982
vn -0.035979 0.995571 0.086860
vn -0.000000 0.742378 0.669982
vn -0.000000 0.995571 0.094017
vn 0.256391 0.742378 0.618982
vn 0.035979 0.995571 0.086860
vn 0.473748 0.742378 0.473749
vn 0.066480 0.995571 0.066480
vn 0.618982 0.742378 0.256391
vn 0.086860 0.995571 0.035979
vn 0.669981 0.742378 0.000000
vn 0.094017 0.995571 0.000000
vn 0.618982 0.742378 -0.256391
vn 0.086860 0.995571 -0.035979
vn 0.473749 0.742378 -0.473748
vn 0.066480 0.995571 -0.066480
vn 0.256391 0.742378 -0.618982
vn 0.035979 0.995571 -0.086860
vn 0.000000 0.742378 -0.669982
vn 0.000000 0.995571 -0.094017
vn -0.256391 0.742378 -0.618982
vn -0.035979 0.995571 -0.086860
vn -0.473749 0.742378 -0.473749
vn -0.066480 0.995571 -0.066480
vn -0.618982 0.742378 -0.256391
vn -0.086860 0.995571 -0.035979
vn -0.669982 0.742378 -0.000000
vn -0.094017 0.995571 -0.000000
vn 0.310348 0.941891 -0.128550
vn 0.237530 0.941891 -0.237530
vn 0.128550 0.941891 -0.310348
vn 0.000000 0.941891 -0.335918
vn -0.128550 0.941891 -0.310348
vn -0.237530 0.941891 -0.237530
vn -0.310348 0.941891 -0.128550
vn -0.335918 0.941891 -0.000000
vn -0.310348 0.941891 0.128550
vn -0.237530 0.941891 0.237530
vn -0.128550 0.941891 0.310348
vn -0.000000 0.941891 0.335918
vn 0.128550 0.941891 0.310348
vn 0.237530 0.941891 0.237530
vn 0.310348 0.941891 0.128550
vn 0.335918 0.941891 0.000000
vn 0.586506 0.772652 -0.242939
vn 0.448893 0.772652 -0.448892
vn 0.242939 0.772652 -0.586506
vn 0.000000 0.772652 -0.634830
vn -0.242939 0.772652 -0.586506
vn -0.448892 0.772652 -0.448893
vn -0.586506 0.772652 -0.242939
vn -0.634830 0.772652 -0.000000
vn -0.586506 0.772652 0.242939
vn -0.448893 0.772652 0.448892
vn -0.242939 0.772652 0.586506
vn -0.000000 0.772652 0.634830
vn 0.242939 0.772652 0.586506
vn 0.448893 0.772652 0.448893
vn 0.586506 0.772652 0.242939
vn 0.634830 0.772652 0.000000
vn 0.822754 0.454900 -0.340796
vn 0.629709 0.454900 -0.629708
vn 0.340796 0.454900 -0.822754
vn 0.000000 0.454900 -0.890542
vn -0.340795 0.454900 -0.822754
vn -0.629708 0.454900 -0.629709
vn -0.822754 0.454900 -0.340796
vn -0.890542 0.454900 -0.000000
vn -0.822754 0.454900 0.340796
vn -0.629709 0.454900 0.629708
vn -0.340796 0.454900 0.822754
vn -0.000000 0.454900 0.890542
vn 0.340796 0.454900 0.822754
vn 0.629708 0.454900 0.629709
vn 0.822754 0.454900 0.340796
vn 0.890543 0.454900 0.000000
vn 0.923880 0.000000 -0.382683
vn 0.707107 -0.000000 -0.707106
vn 0.382684 -0.000000 -0.923879
vn 0.000000 -0.000000 -1.000000
vn -0.382683 -0.000000 -0.923880
vn -0.707106 -0.000001 -0.707107
vn -0.923879 -0.000000 -0.382684
vn -1.000000 -0.000001 -0.000000
vn -0.923880 -0.000001 0.382683
vn -0.707107 -0.000000 0.707107
vn -0.382684 -0.000000 0.923879
vn -0.000000 -0.000000 1.000000
vn 0.382683 -0.000000 0.923880
vn 0.707107 -0.000000 0.707107
vn 0.923880 -0.000000 0.382684
vn 1.000000 -0.000000 0.000000
vn 0.822754 -0.454901 -0.340796
vn 0.629709 -0.454901 -0.629708
vn 0.340796 -0.454901 -0.822753
vn 0.000000 -0.454901 -0.890542
vn -0.340795 -0.454901 -0.822754
vn -0.629708 -0.454901 -0.629709
vn -0.822753 -0.454901 -0.340796
vn -0.890542 -0.454901 -0.000000
vn -0.822754 -0.454901 0.340796
vn -0.629709 -0.454901 0.629708
vn -0.340796 -0.454901 0.822754
vn -0.000000 -0.454901 0.890542
vn 0.340796 -0.454901 0.822754
vn 0.629708 -0.454901 0.629708
vn 0.822754 -0.454901 0.340796
vn 0.890542 -0.454901 0.000000
vn 0.586506 -0.772652 -0.242939
vn 0.448892 -0.772652 -0.448892
vn 0.242939 -0.772652 -0.586506
vn 0.000000 -0.772652 -0.634830
vn -0.242938 -0.772652 -0.586506
vn -0.448892 -0.772652 -0.448893
vn -0.586506 -0.772652 -0.242939
vn -0.634830 -0.772652 -0.000000
vn -0.586506 -0.772652 0.242939
vn -0.448892 -0.772652 0.448892
vn -0.242939 -0.772652 0.586506
vn -0.000000 -0.772652 0.634830
vn 0.242939 -0.772652 0.586506
vn 0.448892 -0.772652 0.448892
vn 0.586506 -0.772652 0.242939
vn 0.634830 -0.772652 0.000000
vn 0.069631 -0.997156 -0.028842
vn 0.053294 -0.997156 -0.053294
vn 0.028842 -0.997156 -0.069632
vn 0.000000 -0.997156 -0.075369
vn -0.028842 -0.997156 -0.069632
vn -0.053294 -0.997156 -0.053294
vn -0.069632 -0.997156 -0.028842
vn -0.075369 -0.997156 -0.000000
vn -0.069632 -0.997156 0.028842
vn -0.053294 -0.997156 0.053294
vn -0.028842 -0.997156 0.069632
vn -0.000000 -0.997156 0.075369
vn 0.028842 -0.997156 0.069632
vn 0.053294 -0.997156 0.053294
vn 0.069632 -0.997156 0.028842
vn 0.075369 -0.997156 0.000000
vn -0.225507 -0.969753 0.093408
vn -0.172596 -0.969753 0.172596
vn -0.093408 -0.969753 0.225507
vn -0.000000 -0.969753 0.244087
vn 0.093408 -0.969753 0.225507
vn 0.172596 -0.969753 0.172596
vn 0.225507 -0.969753 0.093408
vn 0.244087 -0.969753 0.000000
vn 0.225507 -0.969753 -0.093408
vn 0.172596 -0.969753 -0.172596
vn 0.093408 -0.969753 -0.225507
vn 0.000000 -0.969753 -0.244087
vn -0.093408 -0.969753 -0.225507
vn -0.172596 -0.969753 -0.172596
vn -0.225507 -0.969753 -0.093408
vn -0.244087 -0.969753 -0.000000
vn -0.923846 -0.008553 0.382669
vn -0.707081 -0.008553 0.707081
vn -0.382670 -0.008553 0.923846
vn -0.000001 -0.008553 0.999963
vn 0.382669 -0.008553 0.923846
vn 0.707081 -0.008553 0.707081
vn 0.923846 -0.008553 0.382670
vn 0.999963 -0.008553 0.000000
vn 0.923846 -0.008553 -0.382669
vn 0.707081 -0.008553 -0.707081
vn 0.382670 -0.008553 -0.923846
vn 0.000000 -0.008553 -0.999963
vn -0.382669 -0.008553 -0.923846
vn -0.707081 -0.008553 -0.707081
vn -0.923846 -0.008553 -0.382669
vn -0.999963 -0.008553 -0.000000
s 1
g Donut_Object
usemtl lambert4SG
f 2/1/1 1/2/2 17/3/3 18/4/4
f 3/5/5 2/1/1 18/4/4 19/6/6
f 4/7/7 3/5/5 19/6/6 20/8/8
f 5/9/9 4/7/7 20/8/8 21/10/10
f 6/11/11 5/9/9 21/10/10 22/12/12
f 7/13/13 6/11/11 22/12/12 23/14/14
f 8/15/15 7/13/13 23/14/14 24/16/16
f 9/17/17 8/15/15 24/16/16 25/18/18
f 10/19/19 9/17/17 25/18/18 26/20/20
f 11/21/21 10/19/19 26/20/20 27/22/22
f 12/23/23 11/21/21 27/22/22 28/24/24
f 13/25/25 12/23/23 28/24/24 29/26/26
f 14/27/27 13/25/25 29/26/26 30/28/28
f 15/29/29 14/27/27 30/28/28 31/30/30
f 16/31/31 15/29/29 31/30/30 32/32/32
f 1/2/2 16/31/31 32/32/32 17/3/3
f 18/4/4 17/3/3 33/33/33 34/34/34
f 19/6/6 18/4/4 34/34/34 35/35/35
f 20/8/8 19/6/6 35/35/35 36/36/36
f 21/10/10 20/8/8 36/36/36 37/37/37
f 22/12/12 21/10/10 37/37/37 38/38/38
f 23/14/14 22/12/12 38/38/38 39/39/39
f 24/16/16 23/14/14 39/39/39 40/40/40
f 25/18/18 24/16/16 40/40/40 41/41/41
f 26/20/20 25/18/18 41/41/41 42/42/42
f 27/22/22 26/20/20 42/42/42 43/43/43
f 28/24/24 27/22/22 43/43/43 44/44/44
f 29/26/26 28/24/24 44/44/44 45/45/45
f 30/28/28 29/26/26 45/45/45 46/46/46
f 31/30/30 30/28/28 46/46/46 47/47/47
f 32/32/32 31/30/30 47/47/47 48/48/48
f 17/3/3 32/32/32 48/48/48 33/33/33
f 34/34/34 33/33/33 49/49/49 50/50/50
f 35/35/35 34/34/34 50/50/50 51/51/51
f 36/36/36 35/35/35 51/51/51 52/52/52
f 37/37/37 36/36/36 52/52/52 53/53/53
f 38/38/38 37/37/37 53/53/53 54/54/54
f 39/39/39 38/38/38 54/54/54 55/55/55
f 40/40/40 39/39/39 55/55/55 56/56/56
f 41/41/41 40/40/40 56/56/56 57/57/57
f 42/42/42 41/41/41 57/57/57 58/58/58
f 43/43/43 42/42/42 58/58/58 59/59/59
f 44/44/44 43/43/43 59/59/59 60/60/60
f 45/45/45 44/44/44 60/60/60 61/61/61
f 46/46/46 45/45/45 61/61/61 62/62/62
f 47/47/47 46/46/46 62/62/62 63/63/63
f 48/48/48 47/47/47 63/63/63 64/64/64
f 33/33/33 48/48/48 64/64/64 49/49/49
f 50/50/50 49/49/49 65/65/65 66/66/66
f 51/51/51 50/50/50 66/66/66 67/67/67
f 52/52/52 51/51/51 67/67/67 68/68/68
f 53/53/53 52/52/52 68/68/68 69/69/69
f 54/54/54 53/53/53 69/69/69 70/70/70
f 55/55/55 54/54/54 70/70/70 71/71/71
f 56/56/56 55/55/55 71/71/71 72/72/72
f 57/57/57 56/56/56 72/72/72 73/73/73
f 58/58/58 57/57/57 73/73/73 74/74/74
f 59/59/59 58/58/58 74/74/74 75/75/75
f 60/60/60 59/59/59 75/75/75 76/76/76
f 61/61/61 60/60/60 76/76/76 77/77/77
f 62/62/62 61/61/61 77/77/77 78/78/78
f 63/63/63 62/62/62 78/78/78 79/79/79
f 64/64/64 63/63/63 79/79/79 80/80/80
f 49/49/49 64/64/64 80/80/80 65/65/65
f 66/66/66 65/65/65 81/178/81 82/192/82
f 67/67/67 66/66/66 82/192/82 83/191/83
f 68/68/68 67/67/67 83/191/83 84/190/84
f 69/69/69 68/68/68 84/190/84 85/189/85
f 70/70/70 69/69/69 85/189/85 86/188/86
f 71/71/71 70/70/70 86/188/86 87/187/87
f 72/72/72 71/71/71 87/187/87 88/186/88
f 73/73/73 72/72/72 88/186/88 89/185/89
f 74/74/74 73/73/73 89/185/89 90/184/90
f 75/75/75 74/74/74 90/184/90 91/183/91
f 76/76/76 75/75/75 91/183/91 92/182/92
f 77/77/77 76/76/76 92/182/92 93/181/93
f 78/78/78 77/77/77 93/181/93 94/180/94
f 79/79/79 78/78/78 94/180/94 95/179/95
f 80/80/80 79/79/79 95/179/95 96/177/96
f 65/65/65 80/80/80 96/177/96 81/178/81
f 82/82/82 81/81/81 97/97/97 98/98/98
f 83/83/83 82/82/82 98/98/98 99/99/99
f 84/84/84 83/83/83 99/99/99 100/100/100
f 85/85/85 84/84/84 100/100/100 101/101/101
f 86/86/86 85/85/85 101/101/101 102/102/102
f 87/87/87 86/86/86 102/102/102 103/103/103
f 88/88/88 87/87/87 103/103/103 104/104/104
f 89/89/89 88/88/88 104/104/104 105/105/105
f 90/90/90 89/89/89 105/105/105 106/106/106
f 91/91/91 90/90/90 106/106/106 107/107/107
f 92/92/92 91/91/91 107/107/107 108/108/108
f 93/93/93 92/92/92 108/108/108 109/109/109
f 94/94/94 93/93/93 109/109/109 110/110/110
f 95/95/95 94/94/94 110/110/110 111/111/111
f 96/96/96 95/95/95 111/111/111 112/112/112
f 81/81/81 96/96/96 112/112/112 97/97/97
f 98/98/98 97/97/97 113/113/113 114/114/114
f 99/99/99 98/98/98 114/114/114 115/115/115
f 100/100/100 99/99/99 115/115/115 116/116/116
f 101/101/101 100/100/100 116/116/116 117/117/117
f 102/102/102 101/101/101 117/117/117 118/118/118
f 103/103/103 102/102/102 118/118/118 119/119/119
f 104/104/104 103/103/103 119/119/119 120/120/120
f 105/105/105 104/104/104 120/120/120 121/121/121
f 106/106/106 105/105/105 121/121/121 122/122/122
f 107/107/107 106/106/106 122/122/122 123/123/123
f 108/108/108 107/107/107 123/123/123 124/124/124
f 109/109/109 108/108/108 124/124/124 125/125/125
f 110/110/110 109/109/109 125/125/125 126/126/126
f 111/111/111 110/110/110 126/126/126 127/127/127
f 112/112/112 111/111/111 127/127/127 128/128/128
f 97/97/97 112/112/112 128/128/128 113/113/113
f 114/114/114 113/113/113 129/129/129 130/130/130
f 115/115/115 114/114/114 130/130/130 131/131/131
f 116/116/116 115/115/115 131/131/131 132/132/132
f 117/117/117 116/116/116 132/132/132 133/133/133
f 118/118/118 117/117/117 133/133/133 134/134/134
f 119/119/119 118/118/118 134/134/134 135/135/135
f 120/120/120 119/119/119 135/135/135 136/136/136
f 121/121/121 120/120/120 136/136/136 137/137/137
f 122/122/122 121/121/121 137/137/137 138/138/138
f 123/123/123 122/122/122 138/138/138 139/139/139
f 124/124/124 123/123/123 139/139/139 140/140/140
f 125/125/125 124/124/124 140/140/140 141/141/141
f 126/126/126 125/125/125 141/141/141 142/142/142
f 127/127/127 126/126/126 142/142/142 143/143/143
f 128/128/128 127/127/127 143/143/143 144/144/144
f 113/113/113 128/128/128 144/144/144 129/129/129
f 130/130/130 129/129/129 145/145/145 146/146/146
f 131/131/131 130/130/130 146/146/146 147/147/147
f 132/132/132 131/131/131 147/147/147 148/148/148
f 133/133/133 132/132/132 148/148/148 149/149/149
f 134/134/134 133/133/133 149/149/149 150/150/150
f 135/135/135 134/134/134 150/150/150 151/151/151
f 136/136/136 135/135/135 151/151/151 152/152/152
f 137/137/137 136/136/136 152/152/152 153/153/153
f 138/138/138 137/137/137 153/153/153 154/154/154
f 139/139/139 138/138/138 154/154/154 155/155/155
f 140/140/140 139/139/139 155/155/155 156/156/156
f 141/141/141 140/140/140 156/156/156 157/157/157
f 142/142/142 141/141/141 157/157/157 158/158/158
f 143/143/143 142/142/142 158/158/158 159/159/159
f 144/144/144 143/143/143 159/159/159 160/160/160
f 129/129/129 144/144/144 160/160/160 145/145/145
f 146/146/146 145/145/145 161/194/161 162/208/162
f 147/147/147 146/146/146 162/208/162 163/207/163
f 148/148/148 147/147/147 163/207/163 164/206/164
f 149/149/149 148/148/148 164/206/164 165/205/165
f 150/150/150 149/149/149 165/205/165 166/204/166
f 151/151/151 150/150/150 166/204/166 167/203/167
f 152/152/152 151/151/151 167/203/167 168/202/168
f 153/153/153 152/152/152 168/202/168 169/201/169
f 154/154/154 153/153/153 169/201/169 170/200/170
f 155/155/155 154/154/154 170/200/170 171/199/171
f 156/156/156 155/155/155 171/199/171 172/198/172
f 157/157/157 156/156/156 172/198/172 173/197/173
f 158/158/158 157/157/157 173/197/173 174/196/174
f 159/159/159 158/158/158 174/196/174 175/195/175
f 160/160/160 159/159/159 175/195/175 176/193/176
f 145/145/145 160/160/160 176/193/176 161/194/161
f 2/1/1 162/162/162 161/161/161 1/2/2
f 3/5/5 163/163/163 162/162/162 2/1/1
f 4/7/7 164/164/164 163/163/163 3/5/5
f 5/9/9 165/165/165 164/164/164 4/7/7
f 6/11/11 166/166/166 165/165/165 5/9/9
f 7/13/13 167/167/167 166/166/166 6/11/11
f 8/15/15 168/168/168 167/167/167 7/13/13
f 9/17/17 169/169/169 168/168/168 8/15/15
f 10/19/19 170/170/170 169/169/169 9/17/17
f 11/21/21 171/171/171 170/170/170 10/19/19
f 12/23/23 172/172/172 171/171/171 11/21/21
f 13/25/25 173/173/173 172/172/172 12/23/23
f 14/27/27 174/174/174 173/173/173 13/25/25
f 15/29/29 175/175/175 174/174/174 14/27/27
f 16/31/31 176/176/176 175/175/175 15/29/29
f 1/2/2 161/161/161 176/176/176 16/31/31
